<svg width="181" height="34" viewBox="0 0 181 34" fill="none" xmlns="http://www.w3.org/2000/svg">
<path d="M38.0044 9.98438C36.49 9.98438 35.2412 11.1888 35.2412 12.7075V18.4679V24.2284H38.0044V18.4679V12.7075H41.2991H44.5937V9.98438H41.2991H38.0044Z" fill="#E1E1E6"/>
<path d="M61.0662 17.079V12.6802C61.0662 11.1877 59.844 9.95703 58.3029 9.95703H53.8392H49.3755C47.8611 9.95703 46.6123 11.1615 46.6123 12.6802V17.079V21.4779C46.6123 22.9704 47.8345 24.2011 49.3755 24.2011H53.8392H58.3029C59.8174 24.2011 61.0662 22.9966 61.0662 21.4779V17.079ZM58.3029 17.079V21.4779H53.8392H49.3755V17.079V12.6802H53.8392H58.3029V17.079Z" fill="#E1E1E6"/>
<path d="M66.5943 9.98438C65.0798 9.98438 63.8311 11.1888 63.8311 12.7075V17.1064V21.5053C63.8311 22.9978 65.0533 24.2284 66.5943 24.2284L76.3188 24.0975V21.5053H66.5943V17.1064V12.7075H76.3188V10.1153L66.5943 9.98438Z" fill="#E1E1E6"/>
<path d="M92.1572 9.98438H88.4109L82.9376 15.7186H81.8482V9.98438H79.085V17.0802V24.2022H81.8482V18.4418H83.2298H83.4424L89.1283 24.2022H92.9277L85.6211 16.766L92.1572 9.98438Z" fill="#E1E1E6"/>
<path d="M96.2701 21.4779V18.4406L107.961 18.3097V15.7175V12.6802C107.961 11.1877 106.739 9.95703 105.197 9.95703H100.734H96.2701C94.7556 9.95703 93.5068 11.1615 93.5068 12.6802V17.079V21.4779C93.5068 22.9704 94.729 24.2011 96.2701 24.2011L107.961 24.0701V21.4779H96.2701ZM96.2701 12.6802H100.734H105.197V15.7175H102.115H96.2701V12.6802Z" fill="#E1E1E6"/>
<path d="M114.896 5.82031H113.834L112.133 7.88885V9.95737H110.034V12.6805L112.133 12.6543V21.4783C112.133 22.9708 113.355 24.2014 114.896 24.2014L119.36 24.0705V21.4783H114.896V12.6281L119.759 12.5496V9.95737H114.896V5.82031Z" fill="#E1E1E6"/>
<path d="M134.319 18.4406C134.319 16.9481 133.097 15.7175 131.556 15.7175H128.075H124.594V12.6802H134.319V10.088L124.594 9.95703C123.08 9.95703 121.831 11.1615 121.831 12.6802V15.7175C121.831 17.21 123.053 18.4406 124.594 18.4406H128.075H131.556V21.4779H121.831V24.0701L131.556 24.2011C133.07 24.2011 134.319 22.9966 134.319 21.4779V18.4406Z" fill="#E1E1E6"/>
<path d="M148.744 9.98438H144.281H139.817C138.302 9.98438 137.054 11.1888 137.054 12.7075V17.1064V21.5053C137.054 22.9978 138.276 24.2284 139.817 24.2284L151.508 24.0975V21.5053H139.817V18.4679L151.508 18.337V15.7448V12.7075C151.508 11.1888 150.285 9.98438 148.744 9.98438ZM148.744 15.7186H139.817V12.6813H144.281H148.744V15.7186Z" fill="#E1E1E6"/>
<path d="M165.963 9.98438L154.272 10.1153V12.7075H165.963V15.7448L154.272 15.8757V18.4679V21.5053C154.272 22.9978 155.495 24.2284 157.036 24.2284H161.499H165.963C167.478 24.2284 168.726 23.0239 168.726 21.5053V17.1064V12.7075C168.7 11.1888 167.478 9.98438 165.963 9.98438ZM165.963 21.4791H161.499H157.036V18.4418H165.963V21.4791Z" fill="#E1E1E6"/>
<path d="M175.639 12.627L180.501 12.5484V9.9562H175.639V5.79297H174.576L172.875 7.86149V9.93002H170.776V12.6531L172.875 12.627V21.4509C172.875 22.9434 174.098 24.1741 175.639 24.1741L180.102 24.0431V21.4509H175.639V12.627Z" fill="#E1E1E6"/>
<path d="M27.9323 0.661562L23.442 0.00696484C23.3092 -0.019219 23.1763 0.0331455 23.1232 0.0855133L21.2102 2.5468C21.0773 2.7039 21.0508 2.91337 21.1039 3.09666C21.157 3.27995 20.9976 3.43705 20.8116 3.41087L19.244 3.07047C19.0049 3.01811 18.7392 3.09666 18.5798 3.30614L12.3625 11.1613C12.2562 11.3184 12.0437 11.3708 11.8577 11.2922L9.49298 10.2449C9.28042 10.1401 9.04129 10.1663 8.85531 10.2972L7.65967 11.1089C7.47369 11.2398 7.20799 11.266 6.99543 11.1613L6.4109 10.8733C6.03893 10.69 5.58724 10.8995 5.48097 11.2922L5.05585 13.1513C4.94957 13.5964 5.13556 14.0415 5.5341 14.2772L6.43747 14.827L9.33356 16.5814L10.7417 17.4454C11.1403 17.6811 11.6451 17.6287 11.9905 17.3407L14.3552 15.2984C14.5412 15.1412 14.8335 15.0889 15.046 15.2198L15.7634 15.5864C16.0025 15.7173 16.2948 15.6649 16.4808 15.4816L17.6764 14.3819C17.8624 14.1986 18.1547 14.1724 18.3672 14.2772L20.1474 15.0889C20.4131 15.2198 20.7319 15.1412 20.9179 14.9056L21.7416 13.8582L27.9854 5.97689C28.2777 5.61031 28.0917 5.06045 27.6135 4.95572L26.2318 4.64151C25.9396 4.58914 25.8067 4.22257 26.0193 4.0131L28.1714 1.36852C28.384 1.05432 28.2511 0.71393 27.9323 0.661562Z" fill="#8257E6"/>
<path d="M7.34077 16.5276C7.20792 16.4491 7.07507 16.58 7.12821 16.7109L7.79245 18.439C7.84559 18.57 7.84559 18.7009 7.81902 18.8318L7.23449 21.0836C7.20792 21.2407 7.26105 21.3978 7.36733 21.4764L9.04122 22.7594C9.20064 22.8641 9.41319 22.8641 9.54604 22.7332L11.2996 21.2145C11.4059 21.136 11.5388 21.0836 11.645 21.0574L13.6378 20.848C13.7706 20.8218 13.8238 20.6385 13.6909 20.5599L7.34077 16.5276Z" fill="#8257E6"/>
<path d="M6.75737 22.3413C6.65109 22.2628 6.49167 22.2366 6.35882 22.289L4.95064 22.9697C4.87093 22.9959 4.81778 23.0745 4.76464 23.153L1.76228 30.4583C1.76228 30.4845 1.76228 30.4845 1.76228 30.5107C1.78885 30.5369 1.81542 30.5631 1.86856 30.5631L2.55937 30.3012C2.58594 30.3012 2.61251 30.3012 2.63908 30.3012C2.66564 30.3274 2.69222 30.3798 2.66565 30.406L0.513506 33.8884C0.460367 33.967 0.566648 34.0455 0.619787 33.967L8.40469 26.2689C8.48439 26.1904 8.51096 26.1118 8.53753 26.0071L8.69695 24.0171C8.69695 23.8862 8.64381 23.7814 8.5641 23.7029L6.75737 22.3413Z" fill="#8257E6"/>
</svg>
