<svg width="144" height="40" xmlns="http://www.w3.org/2000/svg" xmlns:xlink="http://www.w3.org/1999/xlink"><defs><path id="a" d="M0 0h9.424v6.427H0z"/></defs><g fill="none" fill-rule="evenodd"><g fill="none" fill-opacity="0" fill-rule="nonzero"><path d="M70.288 30.624v-.972H68.92v9.756h1.368v-4.104a2.99 2.99 0 0 0 2.304 1.068c1.74 0 3.108-1.404 3.108-3.444s-1.368-3.384-3.108-3.384c-1.08 0-1.884.528-2.304 1.08Zm4.02 2.304c0 1.428-.984 2.256-2.016 2.256-1.02 0-2.004-.804-2.004-2.232 0-1.416.984-2.22 2.004-2.22 1.032 0 2.016.768 2.016 2.196ZM79.024 32.784c0-1.404.624-1.824 1.632-1.824h.348v-1.416c-.936 0-1.596.408-1.98 1.068v-.96h-1.368v6.612h1.368v-3.48ZM89.164 32.952c0-2.076-1.488-3.408-3.372-3.408s-3.372 1.332-3.372 3.408c0 2.076 1.428 3.42 3.312 3.42 1.896 0 3.432-1.344 3.432-3.42Zm-5.352 0c0-1.5.924-2.22 1.956-2.22 1.02 0 1.992.72 1.992 2.22 0 1.5-1.008 2.232-2.028 2.232-1.032 0-1.92-.732-1.92-2.232ZM91.288 36.264h1.38v-5.496h1.224v-1.116h-1.224v-.468c0-.756.288-1.044 1.128-1.044V27c-1.728 0-2.508.66-2.508 2.184v.468h-.78v1.116h.78v5.496ZM95.704 36.264h1.368v-6.612h-1.368v6.612Zm.696-7.488c.48 0 .864-.384.864-.876a.863.863 0 0 0-.864-.876.866.866 0 0 0-.876.876c0 .492.384.876.876.876ZM104.404 34.416c-.072-2.388-3.804-1.644-3.804-2.976 0-.444.384-.744 1.116-.744.744 0 1.188.396 1.236.972h1.368c-.072-1.32-1.056-2.124-2.556-2.124-1.56 0-2.544.852-2.544 1.908 0 2.424 3.84 1.68 3.84 2.976 0 .456-.42.792-1.212.792-.756 0-1.272-.444-1.32-.984h-1.416c.06 1.2 1.176 2.136 2.76 2.136 1.56 0 2.532-.84 2.532-1.956ZM111.412 34.416c-.072-2.388-3.804-1.644-3.804-2.976 0-.444.384-.744 1.116-.744.744 0 1.188.396 1.236.972h1.368c-.072-1.32-1.056-2.124-2.556-2.124-1.56 0-2.544.852-2.544 1.908 0 2.424 3.84 1.68 3.84 2.976 0 .456-.42.792-1.212.792-.756 0-1.272-.444-1.32-.984h-1.416c.06 1.2 1.176 2.136 2.76 2.136 1.56 0 2.532-.84 2.532-1.956ZM113.488 36.264h1.368v-6.612h-1.368v6.612Zm.696-7.488c.48 0 .864-.384.864-.876a.863.863 0 0 0-.864-.876.866.866 0 0 0-.876.876c0 .492.384.876.876.876ZM123.556 32.952c0-2.076-1.488-3.408-3.372-3.408s-3.372 1.332-3.372 3.408c0 2.076 1.428 3.42 3.312 3.42 1.896 0 3.432-1.344 3.432-3.42Zm-5.352 0c0-1.5.924-2.22 1.956-2.22 1.02 0 1.992.72 1.992 2.22 0 1.5-1.008 2.232-2.028 2.232-1.032 0-1.92-.732-1.92-2.232ZM130.204 36.264h1.356v-3.9c0-1.848-1.164-2.82-2.712-2.82-.792 0-1.524.324-1.968.864v-.756h-1.368v6.612h1.368v-3.696c0-1.212.66-1.836 1.668-1.836.996 0 1.656.624 1.656 1.836v3.696ZM133.444 32.928c0 2.04 1.38 3.444 3.096 3.444 1.104 0 1.896-.528 2.316-1.092v.984h1.38v-6.612h-1.38v.96c-.408-.54-1.176-1.068-2.292-1.068-1.74 0-3.12 1.344-3.12 3.384Zm5.412.024c0 1.428-.972 2.232-2.004 2.232-1.02 0-2.004-.828-2.004-2.256s.984-2.196 2.004-2.196c1.032 0 2.004.804 2.004 2.22ZM142.636 36.264h1.368v-8.88h-1.368z"/></g><path d="M93.082 4.784c1.675 0 3.165.419 4.441 1.247l.27.183V5.112h4.903v17.674h-4.903v-.952c-1.304.947-2.887 1.426-4.71 1.426-2.548 0-4.938-.965-6.731-2.718-1.788-1.747-2.773-4.07-2.773-6.538a9.03 9.03 0 0 1 2.773-6.535c1.787-1.732 4.177-2.685 6.73-2.685Zm41.304 0c1.675 0 3.165.419 4.441 1.247l.27.183V5.112H144v17.674h-4.903v-.952c-1.304.947-2.887 1.426-4.71 1.426-2.548 0-4.938-.965-6.731-2.718-1.788-1.747-2.772-4.07-2.772-6.538a9.03 9.03 0 0 1 2.772-6.535c1.787-1.731 4.177-2.685 6.73-2.685Zm-19.006 0c2.092 0 3.875.636 5.155 1.84 1.394 1.31 2.132 3.208 2.196 5.642l.005.351v10.169h-4.903v-9.439c0-1.474-.362-2.542-1.076-3.173-.562-.498-1.34-.74-2.377-.74-1.04 0-1.819.235-2.378.718-.665.576-1.024 1.529-1.069 2.836l-.005.286v9.512h-4.903V5.112h4.903V6.22l.282-.197.3-.196c.883-.55 2.04-1.043 3.87-1.043Zm-51.362 0v4.65h-.175c-2.754 0-4.488.361-5.456 1.137-.767.615-1.105 1.498-1.14 3.013l-.003.274v8.928h-4.903V5.112h4.903v1.115c1.55-1.045 3.158-1.415 6.224-1.441l.55-.002Zm-58.533.328 3.437 11.01 4.01-11.01h4.244l3.938 11.007 3.472-11.007h5.523l-6.456 17.674h-4.762l-3.834-10.7-3.69 10.7H6.38L0 5.112h5.485ZM71.705 0l-.026 12.56 5.7-6.971h6.575l-7.228 8.598 7.29 8.537h-6.605l-5.605-7.49-.101 7.49h-4.918V0h4.918Zm62.681 9.433c-2.533 0-4.674 2.093-4.674 4.57 0 1.211.488 2.362 1.374 3.24a4.665 4.665 0 0 0 3.3 1.367 4.72 4.72 0 0 0 3.333-1.367c.889-.877 1.378-2.027 1.378-3.24 0-1.196-.49-2.335-1.378-3.206a4.735 4.735 0 0 0-3.333-1.364Zm-41.304 0c-2.533 0-4.674 2.093-4.674 4.57 0 1.211.488 2.362 1.374 3.24a4.665 4.665 0 0 0 3.3 1.367 4.721 4.721 0 0 0 3.333-1.367c.889-.877 1.378-2.027 1.378-3.24 0-1.196-.49-2.335-1.378-3.206a4.735 4.735 0 0 0-3.333-1.364Z" fill="#002D72"/><path d="M39.911 8.763a9.488 9.488 0 0 1 4.714-1.243 9.58 9.58 0 0 1 2.27.272 9.464 9.464 0 0 0-6.984-3.051 9.464 9.464 0 0 0-6.984 3.051 9.58 9.58 0 0 1 2.271-.272c1.717 0 3.327.453 4.713 1.243" fill="#FFC600"/><path d="M30.858 11.44a9.169 9.169 0 0 0-.373 2.591c0 4.36 3.047 8.017 7.155 9.019a9.183 9.183 0 0 1-2.44-6.155 9.335 9.335 0 0 1-4.342-5.456" fill="#FF4807"/><path d="m35.2 16.895-.002-.084c0-3.44 1.896-6.441 4.713-8.048a9.488 9.488 0 0 0-4.713-1.243c-.783 0-1.543.095-2.27.272a9.24 9.24 0 0 0-2.07 3.647 9.336 9.336 0 0 0 4.341 5.456" fill="#FF97B1"/><path d="M44.624 16.895a9.182 9.182 0 0 1-2.441 6.155c4.108-1.002 7.155-4.66 7.155-9.019 0-.9-.13-1.769-.373-2.592a9.336 9.336 0 0 1-4.341 5.456" fill="#0A78FF"/><path d="M44.625 7.52a9.489 9.489 0 0 0-4.714 1.243c2.818 1.607 4.714 4.609 4.714 8.048l-.001.084a9.336 9.336 0 0 0 4.341-5.456 9.24 9.24 0 0 0-2.07-3.647 9.58 9.58 0 0 0-2.27-.272" fill="#00B450"/><g transform="translate(35.2 16.895)"><mask id="b" fill="#fff"><use xlink:href="#a"/></mask><path d="M4.712 1.243A9.488 9.488 0 0 1 0 0a9.183 9.183 0 0 0 2.441 6.155 9.574 9.574 0 0 0 4.542 0A9.182 9.182 0 0 0 9.424 0a9.488 9.488 0 0 1-4.712 1.243" fill="#BF17A7" mask="url(#b)"/></g><path d="m35.198 16.81.001.085a9.488 9.488 0 0 0 4.712 1.242 9.488 9.488 0 0 0 4.713-1.242v-.084c0-3.44-1.895-6.441-4.713-8.048-2.817 1.607-4.713 4.609-4.713 8.048" fill="#002D72"/></g></svg>
